<mxfile host="app.diagrams.net" agent="Mozilla/5.0 (Windows NT 10.0; Win64; x64) AppleWebKit/537.36 (KHTML, like Gecko) Chrome/128.0.0.0 Safari/537.36" version="24.7.16">
  <diagram name="Page-1" id="u1zBDyUBh4gwsHwCZ8yx">
    <mxGraphModel dx="1313" dy="653" grid="1" gridSize="10" guides="1" tooltips="1" connect="1" arrows="1" fold="1" page="1" pageScale="1" pageWidth="827" pageHeight="1169" math="0" shadow="0">
      <root>
        <mxCell id="0" />
        <mxCell id="1" parent="0" />
        <mxCell id="j4K7XZkXjLMSbE_-4UNr-1" value="" style="rounded=0;whiteSpace=wrap;html=1;" vertex="1" parent="1">
          <mxGeometry x="250" y="230" width="830" height="530" as="geometry" />
        </mxCell>
        <mxCell id="j4K7XZkXjLMSbE_-4UNr-2" value="Numero eta&lt;span style=&quot;background-color: initial;&quot;&gt;ge&lt;/span&gt;" style="text;html=1;align=center;verticalAlign=middle;resizable=0;points=[];autosize=1;strokeColor=none;fillColor=none;" vertex="1" parent="1">
          <mxGeometry x="615" y="260" width="100" height="30" as="geometry" />
        </mxCell>
        <mxCell id="j4K7XZkXjLMSbE_-4UNr-4" value="escalier" style="ellipse;whiteSpace=wrap;html=1;aspect=fixed;" vertex="1" parent="1">
          <mxGeometry x="510" y="600" width="80" height="80" as="geometry" />
        </mxCell>
        <mxCell id="j4K7XZkXjLMSbE_-4UNr-5" value="salle" style="whiteSpace=wrap;html=1;aspect=fixed;" vertex="1" parent="1">
          <mxGeometry x="374" y="320" width="80" height="80" as="geometry" />
        </mxCell>
        <mxCell id="j4K7XZkXjLMSbE_-4UNr-6" value="salle" style="whiteSpace=wrap;html=1;aspect=fixed;" vertex="1" parent="1">
          <mxGeometry x="360" y="500" width="80" height="80" as="geometry" />
        </mxCell>
        <mxCell id="j4K7XZkXjLMSbE_-4UNr-7" value="salle" style="whiteSpace=wrap;html=1;aspect=fixed;" vertex="1" parent="1">
          <mxGeometry x="550" y="330" width="80" height="80" as="geometry" />
        </mxCell>
        <mxCell id="j4K7XZkXjLMSbE_-4UNr-8" value="salle" style="whiteSpace=wrap;html=1;aspect=fixed;" vertex="1" parent="1">
          <mxGeometry x="740" y="330" width="80" height="80" as="geometry" />
        </mxCell>
        <mxCell id="j4K7XZkXjLMSbE_-4UNr-9" value="salle" style="whiteSpace=wrap;html=1;aspect=fixed;" vertex="1" parent="1">
          <mxGeometry x="900" y="465" width="80" height="80" as="geometry" />
        </mxCell>
        <mxCell id="j4K7XZkXjLMSbE_-4UNr-10" value="salle" style="whiteSpace=wrap;html=1;aspect=fixed;" vertex="1" parent="1">
          <mxGeometry x="740" y="460" width="90" height="90" as="geometry" />
        </mxCell>
        <mxCell id="j4K7XZkXjLMSbE_-4UNr-12" value="salle" style="whiteSpace=wrap;html=1;aspect=fixed;" vertex="1" parent="1">
          <mxGeometry x="747" y="584" width="80" height="80" as="geometry" />
        </mxCell>
        <mxCell id="j4K7XZkXjLMSbE_-4UNr-13" value="salle" style="whiteSpace=wrap;html=1;aspect=fixed;" vertex="1" parent="1">
          <mxGeometry x="900" y="584" width="80" height="80" as="geometry" />
        </mxCell>
      </root>
    </mxGraphModel>
  </diagram>
</mxfile>
